<svg width="32" height="32" viewBox="0 0 24 24" fill="none" xmlns="http://www.w3.org/2000/svg">
  <path d="M18.84 5.38C18.66 5.16 18.25 5.56 18.42 5.81C19.34 7.15 19.89 8.78 19.89 10.54C19.89 15.39 16.32 19.41 11.69 20.09C11.51 20.12 11.33 19.98 11.35 19.8C11.45 18.9 11.5 17.98 11.5 17.04C11.5 10.98 7.37 5.92 1.83 4.29C1.65 4.24 1.57 4.02 1.72 3.92C3.25 2.87 5.09 2.25 7.07 2.25C9.37 2.25 11.47 3.07 13.11 4.43C13.29 4.58 13.56 4.52 13.66 4.31C14.39 2.86 15.89 1.87 17.63 1.87C19.5 1.87 21.08 3.12 21.5 4.83C21.55 5.03 21.36 5.19 21.16 5.14C20.35 4.95 19.51 5.03 18.84 5.38Z" fill="#ec4899"/>
</svg>